# xmcd
#
# Track frame offsets:
#	180
#	14807
#	27116
#	37871
#	49296
#	60812
#	73686
#	84921
#	98375
#	113594
#	130159
#	139364
#	148365
#	157958
#	175881
#	188007
#
# Disc length: 2657 seconds
#
# Revision: 1
# Processed by: cddbd v1.5.2PL0 Copyright (c) Steve Scherf et al.
# Submitted via: audiograbber 1.83.01
#
DISCID=cf0a5f10
DTITLE=Rock and Roll - Raritäten 1
DYEAR=1984
DGENRE=Rock and Roll
TTITLE0=Christian Christi - Boogie Pur Adline
TTITLE1=Susi und Rockets - Dieses Haus ist kein Bahnhof
TTITLE2=Booby Socks - Let It Swing
TTITLE3=Joe Jackson - Sharpin on Drape
TTITLE4=Old Formation - Bundesstrasse NR1
TTITLE5=Old Formation - Krutzi Türke`n
TTITLE6=Freddy Mandera - Boogie Woogie Is In
TTITLE7=Mojo Blues Band - Rosalie
TTITLE8=Die Zwei - Boogie Woogie Baby
TTITLE9=The Rovers - Was a Have a party
TTITLE10=Schurli und die Motorbiene - Schuld bist Du
TTITLE11=Blues Band - He, He Little Girl
TTITLE12=Billy Joel - All Shock Up
TTITLE13=Cagey String´s - Running Gitar
TTITLE14=Michael Jackson - Rock in Robin
TTITLE15=Toni Strobel - Der Sperrstunden Blues
EXTD=
EXTT0=
EXTT1=
EXTT2=
EXTT3=
EXTT4=
EXTT5=
EXTT6=
EXTT7=
EXTT8=
EXTT9=
EXTT10=
EXTT11=
EXTT12=
EXTT13=
EXTT14=
EXTT15=
PLAYORDER=
